HIERARCHY
ROOT root
{
	OFFSET 0.000000 0.000000 0.000000
	CHANNELS 6 Xposition Yposition Zposition Zrotation Yrotation Xrotation
	JOINT lhip
	{
		OFFSET 0.058581 -0.082280 -0.017664
		CHANNELS 3 Zrotation Yrotation Xrotation
		JOINT lknee
		{
			OFFSET 0.043451 -0.386469 0.008037
			CHANNELS 3 Zrotation Yrotation Xrotation
			JOINT lankle
			{
				OFFSET -0.014790 -0.426874 -0.037428
				CHANNELS 3 Zrotation Yrotation Xrotation
				JOINT ltoe
				{
					OFFSET 0.041054 -0.060286 0.122042
					CHANNELS 3 Zrotation Yrotation Xrotation
					End Site
					{
						OFFSET 0.000000 0.000000 0.000000
					}
				}
			}
		}
	}
	JOINT rhip
	{
		OFFSET -0.060310 -0.090513 -0.013543
		CHANNELS 3 Zrotation Yrotation Xrotation
		JOINT rknee
		{
			OFFSET -0.043257 -0.383688 -0.004843
			CHANNELS 3 Zrotation Yrotation Xrotation
			JOINT rankle
			{
				OFFSET 0.019056 -0.420046 -0.034562
				CHANNELS 3 Zrotation Yrotation Xrotation
				JOINT rtoe
				{
					OFFSET -0.034840 -0.062106 0.130323
					CHANNELS 3 Zrotation Yrotation Xrotation
					End Site
					{
						OFFSET 0.000000 0.000000 0.000000
					}
				}
			}
		}
	}
	JOINT lowerback
	{
		OFFSET 0.004439 0.124404 -0.038385
		CHANNELS 3 Zrotation Yrotation Xrotation
		JOINT upperback
		{
			OFFSET 0.004488 0.137956 0.026820
			CHANNELS 3 Zrotation Yrotation Xrotation
			JOINT chest
			{
				OFFSET -0.002265 0.056032 0.002855
				CHANNELS 3 Zrotation Yrotation Xrotation
				JOINT lowerneck
				{
					OFFSET -0.013390 0.211636 -0.033468
					CHANNELS 3 Zrotation Yrotation Xrotation
					JOINT upperneck
					{
						OFFSET 0.010113 0.088937 0.050410
						CHANNELS 3 Zrotation Yrotation Xrotation
						End Site
						{
							OFFSET 0.000000 0.000000 0.000000
						}
					}
				}
				JOINT lclavicle
				{
					OFFSET 0.071702 0.114000 -0.018898
					CHANNELS 3 Zrotation Yrotation Xrotation
					JOINT lshoulder
					{
						OFFSET 0.122921 0.045205 -0.019046
						CHANNELS 3 Zrotation Yrotation Xrotation
						JOINT lelbow
						{
							OFFSET 0.255332 -0.015649 -0.022946
							CHANNELS 3 Zrotation Yrotation Xrotation
							JOINT lwrist
							{
								OFFSET 0.265709 0.012698 -0.007375
								CHANNELS 3 Zrotation Yrotation Xrotation
								End Site
								{
									OFFSET 0.000000 0.000000 0.000000
								}
							}
						}
					}
				}
				JOINT rclavicle
				{
					OFFSET -0.082954 0.112472 -0.023707
					CHANNELS 3 Zrotation Yrotation Xrotation
					JOINT rshoulder
					{
						OFFSET -0.113228 0.046853 -0.008472
						CHANNELS 3 Zrotation Yrotation Xrotation
						JOINT relbow
						{
							OFFSET -0.260127 -0.014369 -0.031269
							CHANNELS 3 Zrotation Yrotation Xrotation
							JOINT rwrist
							{
								OFFSET -0.269108 0.006794 -0.006027
								CHANNELS 3 Zrotation Yrotation Xrotation
								End Site
								{
									OFFSET 0.000000 0.000000 0.000000
								}
							}
						}
					}
				}
			}
		}
	}
}
MOTION
Frames: 11
Frame Time: 0.033333
1.795730 0.767192 0.767203 -88.267187 2.645873 111.981332 13.083560 -1.915765 -68.999835 -12.583736 10.626402 82.781339 5.037750 12.106766 -41.342866 0.000000 -0.000000 0.000000 -6.213202 7.057910 -66.607686 3.223019 -11.718714 82.423946 5.364522 -10.510056 -39.832934 0.000000 -0.000000 0.000000 -1.321406 -1.053484 45.219402 3.068819 0.970216 -8.243075 -0.074875 -2.766957 5.119544 3.861212 -2.470755 -21.621106 6.857877 -11.539539 -16.458390 -30.108101 9.727060 7.381007 -50.850828 11.443851 6.579163 1.092078 -28.470070 9.406641 5.218480 -3.215213 -7.591807 26.424580 -4.205076 3.288822 53.636292 -10.245103 7.207626 -3.203636 15.855384 1.615692 -1.482296 2.364043 -2.842052 
1.778493 0.768938 0.749493 -88.566780 2.802058 112.449846 13.662240 -1.944754 -69.778232 -11.870937 11.346743 86.807289 4.856876 11.826467 -42.636768 0.000000 -0.000000 0.000000 -6.083615 7.270208 -67.702332 1.993176 -12.268776 86.874617 3.932457 -10.420072 -41.831293 0.000000 -0.000000 0.000000 -1.822009 -0.358222 45.580487 3.299959 0.749835 -9.296693 0.177904 -3.016583 4.857456 4.533759 -0.485801 -23.529804 6.001025 -11.685760 -14.814059 -31.486411 4.598573 7.109744 -51.399772 5.719315 7.296028 4.055061 -27.019091 5.102241 9.817803 -3.775611 -8.112821 28.309207 0.839517 3.651416 52.937115 -3.224487 9.194860 -3.671376 15.614823 0.237684 -4.808538 3.079745 -4.529577 
1.757042 0.770203 0.740638 -88.909413 3.087367 112.032867 13.457097 -2.683187 -67.824136 -11.518957 10.878738 89.223912 4.368941 11.695046 -44.578491 0.000000 -0.000000 0.000000 -4.926150 8.039767 -66.479203 1.530194 -11.272848 89.799602 4.477787 -10.188141 -43.057956 0.000000 -0.000000 0.000000 -2.314375 -0.150220 45.136311 3.407604 0.325396 -8.891725 0.359413 -3.097579 4.241226 5.011540 2.077762 -25.958298 4.895869 -10.899636 -12.624036 -33.467762 -2.154768 6.220709 -50.009726 -0.646184 8.303125 8.194469 -25.138904 -0.729465 12.807592 -4.781284 -9.016824 31.178250 7.311546 3.387254 50.250502 5.062548 10.979044 -5.391427 14.375842 -1.003055 -4.429257 2.905856 -4.443681 
1.730429 0.770372 0.740394 -89.312168 3.251096 110.408323 12.108631 -4.291949 -63.146426 -10.827202 9.222467 90.282765 3.607657 12.089070 -45.583698 0.000000 -0.000000 0.000000 -3.811729 9.098835 -62.312579 1.172939 -10.107277 90.875837 5.072524 -9.452640 -42.594845 0.000000 -0.000000 0.000000 -2.429747 0.026746 45.171806 3.522335 -0.575418 -8.731436 0.446753 -3.012695 3.842673 5.470663 1.947601 -26.126060 3.996008 -12.469741 -10.343197 -33.673934 -9.614001 4.462311 -48.232348 -7.917123 8.467186 11.269511 -23.216796 -6.234323 13.733766 -4.561561 -8.816527 32.520264 13.822492 2.491935 48.038905 13.204493 11.606807 -8.699244 15.889547 -3.362249 -4.161678 2.406845 -3.156415 
1.701882 0.771112 0.748124 -89.597163 3.331882 108.826241 10.382185 -5.822673 -57.686092 -10.430153 7.176958 89.776508 2.295201 11.601659 -44.668898 0.000000 -0.000000 0.000000 -1.539903 10.009267 -56.855108 0.370106 -8.161036 90.066849 5.389782 -9.286487 -41.954877 0.000000 -0.000000 0.000000 -2.571180 0.549518 43.656798 3.806943 -1.575763 -8.079607 0.769656 -2.889829 3.704275 4.932239 3.708985 -27.181084 3.289820 -12.441666 -7.799953 -29.519208 -16.496695 3.028497 -48.855684 -15.589821 8.008054 16.262312 -26.071674 -10.946259 12.871816 -3.684674 -10.758126 29.548192 19.305080 0.577726 49.482751 20.366314 11.292080 -14.823709 21.937471 -8.897571 -2.103431 1.062602 -8.456880 
1.661137 0.770283 0.766674 -89.616871 2.948277 106.647503 6.907886 -6.098756 -48.724442 -9.433682 4.589750 86.288134 2.039908 11.807933 -44.343050 0.000000 -0.000000 0.000000 0.491479 8.620210 -48.509084 -0.177697 -6.532348 86.916579 6.371240 -7.925996 -40.411392 0.000000 -0.000000 0.000000 -2.405195 0.585311 42.204960 3.811215 -2.537231 -8.014044 1.040571 -3.032132 3.014337 4.520511 3.682595 -27.300859 2.826266 -12.155148 -6.122075 -24.687769 -20.694044 0.088858 -47.234453 -20.652642 8.061078 18.789913 -34.456915 -12.401901 11.423385 -5.015991 -12.369428 25.529242 22.466903 -3.368660 50.459000 23.429504 12.665812 -21.308978 34.839014 -14.936882 4.042613 2.460303 -15.722703 
1.611241 0.771504 0.795680 -89.052168 3.071532 104.939182 5.034885 -5.376561 -39.318795 -9.564761 2.059694 80.868153 1.520888 11.381714 -40.662531 0.000000 -0.000000 0.000000 2.137108 7.560043 -39.364300 0.585518 -5.667206 81.161877 7.292692 -6.987043 -35.327561 0.000000 -0.000000 0.000000 -1.864208 -0.106790 38.657176 3.921606 -3.425188 -7.979940 1.200978 -2.737762 2.511956 3.461500 3.286732 -25.097141 2.751419 -11.633077 -4.847963 -18.619567 -22.802909 -1.885593 -44.927961 -22.989800 7.750009 22.244618 -47.476295 -12.880026 12.345146 -5.216607 -12.974000 19.770928 23.518461 -7.288716 51.769497 23.911618 14.300602 -29.950136 49.386090 -18.673075 1.347379 3.123729 -14.839875 
1.548010 0.773670 0.837125 -89.291950 2.652711 104.517263 4.103838 -4.476571 -29.776721 -9.602756 0.947390 72.308214 1.686166 10.087187 -32.047631 0.000000 -0.000000 0.000000 2.640478 6.036987 -30.500133 1.249717 -4.752092 72.827393 6.207137 -6.347450 -26.012339 0.000000 -0.000000 0.000000 -2.325280 -0.003809 31.368257 3.879916 -4.237273 -7.848659 1.431677 -2.553666 2.580566 2.936812 2.938643 -20.315248 3.431174 -9.284664 -3.938793 -12.098431 -22.299246 -2.750017 -44.774543 -24.124628 7.818160 26.284206 -58.024215 -13.168247 13.593558 -5.486422 -14.201167 13.289210 21.608551 -9.850591 54.510287 22.890637 15.965309 -41.628536 61.126270 -24.201988 -0.341706 3.845072 -14.026297 
1.463038 0.772782 0.896236 -90.330974 1.967069 100.715471 2.542392 -1.859596 -13.775164 -9.956917 -1.516514 58.619745 -0.750498 7.232324 -17.188948 0.000000 -0.000000 0.000000 2.267743 1.940231 -15.866261 1.884757 -1.839482 60.244467 6.343555 -2.196982 -11.176284 0.000000 -0.000000 0.000000 -3.380211 1.607735 24.147363 3.638138 -5.318379 -4.176551 1.804976 -2.305357 2.353017 2.102120 0.768961 -12.048726 4.172516 -7.652150 -2.886507 -6.654915 -20.191601 -3.389359 -48.274848 -24.342459 8.854321 28.637973 -64.439626 -11.173945 12.737470 -6.685003 -16.836806 7.811844 17.786903 -10.552959 59.588618 20.124717 16.537240 -55.726996 67.988870 -35.056063 -0.014007 5.018397 -17.142899 
1.369240 0.769262 0.965092 -89.300185 1.755209 97.883697 2.680934 -1.590833 -0.417901 -6.607571 -2.758008 41.957264 -8.595405 4.175174 9.088811 0.000000 -0.000000 0.000000 0.006685 -3.089289 -3.279540 0.149212 -2.652552 44.687176 11.373576 2.714502 15.518764 0.000000 -0.000000 0.000000 -3.111411 1.297082 15.086439 2.860152 -6.749777 -0.546540 1.968047 -1.851989 2.421610 -1.342548 -2.652636 -0.419223 6.480200 -5.010484 -0.501608 -5.938261 -17.708139 -0.941602 -53.108599 -23.982622 9.444224 29.496610 -66.534168 -12.973328 10.033641 -7.995765 -14.473842 5.477389 14.596536 -7.609103 62.445486 15.649115 15.244913 -63.512057 72.856417 -44.897331 -0.624611 4.970476 -15.977444 
1.279987 0.770583 1.033975 -89.509666 2.287971 97.197877 3.617738 -0.720207 4.760325 -2.023018 0.017680 31.294970 -15.188011 6.354498 32.493625 0.000000 -0.000000 0.000000 0.251910 -4.822216 2.926400 -3.442120 -5.111997 32.692810 13.919814 -0.557448 42.489374 0.000000 -0.000000 0.000000 -3.457684 1.132226 6.964408 2.874381 -7.168283 1.880570 2.699721 -1.371115 0.286908 -6.260304 -5.656617 15.472981 7.473709 2.229292 -5.098551 -8.027661 -13.726061 3.552411 -55.923658 -22.632731 9.278025 22.257119 -69.055185 -5.076289 6.478955 -6.185199 -12.792133 5.752675 10.317191 -1.951191 62.023347 12.978606 14.070445 -54.339204 78.400548 -34.799242 -2.062407 4.974758 -16.306266 
